<svg width="677" height="129" viewBox="0 0 677 129" fill="none" xmlns="http://www.w3.org/2000/svg">
<path d="M0 64.5C0 28.8776 28.8776 0 64.5 0H131.704C137.055 0 139.73 0 142.385 0.141306C150.018 0.547522 157.58 1.82759 164.921 3.95644C167.475 4.69697 170.001 5.57757 175.054 7.33877L215.603 21.4731C225.486 24.918 230.428 26.6405 235.492 27.834C239.629 28.8088 243.823 29.5189 248.05 29.96C253.226 30.5 258.459 30.5 268.925 30.5H410.512C420.812 30.5 425.963 30.5 431.058 29.9767C435.219 29.5493 439.35 28.8612 443.425 27.9164C448.414 26.7597 453.286 25.0901 463.03 21.7508L506.169 6.96741C510.727 5.4054 513.006 4.6244 515.306 3.95738C522.818 1.77877 530.56 0.489035 538.373 0.11463C540.765 0 543.174 0 547.992 0H612.5C648.122 0 677 28.8776 677 64.5C677 100.122 648.122 129 612.5 129H64.5C28.8776 129 0 100.122 0 64.5Z" fill="#44F1A6"/>
</svg>
